<svg xmlns="http://www.w3.org/2000/svg" xmlns:xlink="http://www.w3.org/1999/xlink" version="1.1" width="651.1391457363057" height="419.3642433925558" viewBox="0.09292712588664412 0.11372713525649428 651.1391457363057 419.3642433925558">
  <!-- Exported by Scratch - http://scratch.mit.edu/ -->
  <g id="ID0.9387348685413599">
    <g id="layer1">
      <path id="path1414" fill="#000000" stroke-width="0.2641457363057828" d="M 2.8708 0.2458 C 1.405 0.2458 0.225 1.4259 0.225 2.8917 L 0.225 10.8292 C 0.225 12.295 1.405 13.475 2.8708 13.475 L 9.4399 13.475 C 10.172 14.1537 11.133 14.5315 12.1313 14.5333 C 14.3231 14.5333 16.1 12.7564 16.1 10.5646 C 16.0979 8.8845 15.0382 7.388 13.4542 6.8279 L 13.4542 2.8917 C 13.4542 1.4259 12.2741 0.2458 10.8083 0.2458 Z "/>
      <path id="path1412" fill="#000000" stroke-width="0.2641457363057828" d="M 214.5375 0.2458 C 214.446 0.2458 214.3555 0.2503 214.2663 0.2593 C 212.9288 0.3943 211.8917 1.5174 211.8917 2.8917 L 211.8917 10.8292 C 211.8917 12.295 213.0717 13.475 214.5375 13.475 L 221.1066 13.475 C 221.7384 14.0613 222.5441 14.4259 223.4016 14.5138 C 223.5333 14.5267 223.6656 14.5333 223.7979 14.5333 C 225.9897 14.5333 227.7667 12.7564 227.7667 10.5646 C 227.7646 8.8845 226.7049 7.388 225.1208 6.8279 L 225.1208 2.8917 C 225.1208 1.4259 223.9408 0.2458 222.475 0.2458 Z "/>
      <path id="path1410" fill="#000000" stroke-width="0.2641457363057828" d="M 426.2042 0.2458 C 424.7384 0.2458 423.5584 1.4259 423.5584 2.8917 L 423.5584 10.8292 C 423.5584 12.295 424.7384 13.475 426.2042 13.475 L 432.7733 13.475 C 433.4051 14.0613 434.2108 14.4259 435.0683 14.5138 C 435.2 14.5267 435.3323 14.5333 435.4646 14.5333 C 437.6564 14.5333 439.4334 12.7564 439.4334 10.5646 C 439.4312 8.8845 438.3716 7.388 436.7875 6.8279 L 436.7875 2.8917 C 436.7875 1.4259 435.6075 0.2458 434.1417 0.2458 Z "/>
      <path id="path1408" fill="#000000" stroke-width="0.2641457363057828" d="M 637.8709 0.2458 C 636.4051 0.2458 635.225 1.4259 635.225 2.8917 L 635.225 10.8292 C 635.225 12.295 636.4051 13.475 637.8709 13.475 L 644.4399 13.475 C 645.1721 14.1537 646.133 14.5315 647.1313 14.5333 C 649.3231 14.5333 651.1 12.7564 651.1 10.5646 C 651.0979 8.8845 650.0383 7.388 648.4542 6.8279 L 648.4542 2.8917 C 648.4542 1.4259 647.2742 0.2458 645.8084 0.2458 Z "/>
      <path id="path1406" fill="#000000" stroke-width="0.2641457363057828" d="M 135.1625 161.6417 C 133.6967 161.6417 132.5167 162.8217 132.5167 164.2875 L 132.5167 172.225 C 132.5167 173.6908 133.6967 174.8709 135.1625 174.8709 L 141.7316 174.8709 C 142.4637 175.5495 143.4247 175.9273 144.4229 175.9292 C 146.6147 175.9292 148.3917 174.1522 148.3917 171.9604 C 148.3896 170.2803 147.3299 168.7838 145.7458 168.2237 L 145.7458 164.2875 C 145.7458 162.8217 144.5658 161.6417 143.1 161.6417 Z "/>
      <path id="path1404" fill="#000000" stroke-width="0.2641457363057828" d="M 148.3917 171.9604 L 148.3917 172.225 C 148.3917 173.6908 149.5717 174.8709 151.0375 174.8709 L 157.6066 174.8709 C 158.3387 175.5495 159.2997 175.9273 160.2979 175.9292 C 162.4897 175.9292 164.2667 174.1522 164.2667 171.9604 C 164.2646 170.2803 163.2049 168.7838 161.6208 168.2237 L 161.6208 164.2875 C 161.6208 162.8217 160.4408 161.6417 158.975 161.6417 L 151.0375 161.6417 C 149.5717 161.6417 148.3917 162.8217 148.3917 164.2875 Z "/>
      <path id="path1402" fill="#000000" stroke-width="0.2641457363057828" d="M 317.725 169.5792 C 316.2592 169.5792 315.0792 170.7592 315.0792 172.225 L 315.0792 180.1625 C 315.0792 181.6283 316.2592 182.8084 317.725 182.8084 L 324.2941 182.8084 C 325.0262 183.487 325.9872 183.8648 326.9854 183.8667 C 329.1772 183.8667 330.9542 182.0897 330.9542 179.8979 C 330.9521 178.2178 329.8924 176.7213 328.3084 176.1612 L 328.3084 172.225 C 328.3084 170.7592 327.1283 169.5792 325.6625 169.5792 Z "/>
      <path id="path1400" fill="#000000" stroke-width="0.2641457363057828" d="M 397.1 169.5792 C 395.6342 169.5792 394.4542 170.7592 394.4542 172.225 L 394.4542 180.1625 C 394.4542 181.6283 395.6342 182.8084 397.1 182.8084 L 403.6691 182.8084 C 404.4012 183.487 405.3622 183.8648 406.3604 183.8667 C 408.5523 183.8667 410.3292 182.0897 410.3292 179.8979 C 410.3271 178.2178 409.2674 176.7213 407.6834 176.1612 L 407.6834 172.225 C 407.6834 170.7592 406.5033 169.5792 405.0375 169.5792 L 397.1 169.5792 Z "/>
      <path id="path1398" fill="#000000" stroke-width="0.2641457363057828" d="M 135.1625 177.5167 C 133.6967 177.5167 132.5167 178.6967 132.5167 180.1625 L 132.5167 188.1 C 132.5167 189.5658 133.6967 190.7459 135.1625 190.7459 L 141.7316 190.7459 C 142.4637 191.4245 143.4247 191.8023 144.4229 191.8042 C 146.6147 191.8042 148.3917 190.0272 148.3917 187.8354 C 148.3896 186.1553 147.3299 184.6588 145.7458 184.0987 L 145.7458 180.1625 C 145.7458 178.6967 144.5658 177.5167 143.1 177.5167 Z "/>
      <path id="path1396" fill="#000000" stroke-width="0.2641457363057828" d="M 148.3917 187.8354 L 148.3917 188.1 C 148.3917 189.5658 149.5717 190.7459 151.0375 190.7459 L 157.6066 190.7459 C 158.3387 191.4245 159.2997 191.8023 160.2979 191.8042 C 162.4897 191.8042 164.2667 190.0272 164.2667 187.8354 C 164.2646 186.1553 163.2049 184.6588 161.6208 184.0987 L 161.6208 180.1625 C 161.6208 178.6967 160.4408 177.5167 158.975 177.5167 L 151.0375 177.5167 C 149.5717 177.5167 148.3917 178.6967 148.3917 180.1625 Z "/>
      <path id="path1394" fill="#000000" stroke-width="0.2641457363057828" d="M 592.8917 233.0792 C 591.4259 233.0792 590.2459 234.2592 590.2459 235.725 L 590.2459 243.6625 C 590.2459 245.1283 591.4259 246.3084 592.8917 246.3084 L 599.4608 246.3084 C 600.1929 246.987 601.1538 247.3648 602.1521 247.3667 C 604.3439 247.3667 606.1209 245.5897 606.1209 243.3979 C 606.1188 241.7178 605.0591 240.2213 603.475 239.6612 L 603.475 235.725 C 603.475 234.2592 602.295 233.0792 600.8292 233.0792 Z "/>
      <path id="path1392" fill="#000000" stroke-width="0.2641457363057828" d="M 264.8084 309.8084 C 235.5833 309.8084 211.8917 333.4999 211.8917 362.725 C 211.9187 381.0808 221.4564 398.1115 237.0932 407.7254 C 246.4595 415.2297 258.0983 419.3276 270.1 419.3459 C 299.3251 419.3459 323.0167 395.6543 323.0167 366.4292 C 322.9897 348.0735 313.452 331.0428 297.8151 321.4289 C 288.4489 313.9245 276.8101 309.8266 264.8084 309.8084 Z "/>
      <path id="rect6576" fill="#000000" stroke-width="0.2641457363057828" d="M 592.8917 312.4542 C 591.4259 312.4542 590.2459 313.6342 590.2459 315.1 L 590.2459 323.0375 C 590.2459 324.5033 591.4259 325.6834 592.8917 325.6834 L 599.4608 325.6834 C 600.1929 326.362 601.1538 326.7398 602.1521 326.7417 C 604.3439 326.7417 606.1209 324.9648 606.1209 322.7729 C 606.1188 321.0928 605.0591 319.5964 603.475 319.0362 L 603.475 315.1 C 603.475 313.6342 602.295 312.4542 600.8292 312.4542 Z "/>
    </g>
  </g>
</svg>