<svg xmlns="http://www.w3.org/2000/svg" xmlns:xlink="http://www.w3.org/1999/xlink" version="1.1" width="670.98284530875" height="440.79583359000003" viewBox="-13.20991677163498 -13.189916731103821 670.98284530875 440.79583359000003">
  <!-- Exported by Scratch - http://scratch.mit.edu/ -->
  <g id="ID0.3644556528888643">
    <g id="layer1">
      <path id="circle6586" fill="#ff7300" stroke-width="0.48355231" d="M 323.604 174.135 C 323.604 176.327 321.827 178.104 319.635 178.104 C 317.444 178.104 315.667 176.327 315.667 174.135 C 315.667 171.943 317.444 170.167 319.635 170.167 C 321.827 170.167 323.604 171.943 323.604 174.135 Z "/>
      <path id="circle6621" fill="#ff7300" stroke-width="0.48355231" d="M 402.979 174.135 C 402.979 176.327 401.202 178.104 399.01 178.104 C 396.819 178.104 395.042 176.327 395.042 174.135 C 395.042 171.943 396.819 170.167 399.01 170.167 C 401.202 170.167 402.979 171.943 402.979 174.135 Z "/>
      <path id="circle6945" fill="#ff7300" stroke-width="0.48355231" d="M 156.917 166.198 C 156.917 168.39 155.14 170.167 152.948 170.167 C 150.756 170.167 148.979 168.39 148.979 166.198 C 148.979 164.006 150.756 162.229 152.948 162.229 C 155.14 162.229 156.917 164.006 156.917 166.198 Z "/>
      <path id="circle6959" fill="#ff7300" stroke-width="0.48355231" d="M 156.917 182.073 C 156.917 184.265 155.14 186.042 152.948 186.042 C 150.756 186.042 148.979 184.265 148.979 182.073 C 148.979 179.881 150.756 178.104 152.948 178.104 C 155.14 178.104 156.917 179.881 156.917 182.073 Z "/>
      <path id="circle6973" fill="#ff7300" stroke-width="0.48355231" d="M 141.042 182.073 C 141.042 184.265 139.265 186.042 137.073 186.042 C 134.881 186.042 133.104 184.265 133.104 182.073 C 133.104 179.881 134.881 178.104 137.073 178.104 C 139.265 178.104 141.042 179.881 141.042 182.073 Z "/>
      <path id="circle6987" fill="#ff7300" stroke-width="0.48355231" d="M 141.042 166.198 C 141.042 168.39 139.265 170.167 137.073 170.167 C 134.881 170.167 133.104 168.39 133.104 166.198 C 133.104 164.006 134.881 162.229 137.073 162.229 C 139.265 162.229 141.042 164.006 141.042 166.198 Z "/>
      <path id="circle7047" fill="#ff7300" stroke-width="0.48355231" d="M 594.802 241.604 C 592.61 241.604 590.833 239.827 590.833 237.635 C 590.833 235.444 592.61 233.667 594.802 233.667 C 596.994 233.667 598.771 235.444 598.771 237.635 C 598.771 239.827 596.994 241.604 594.802 241.604 Z "/>
      <path id="circle7059" fill="#ff7300" stroke-width="0.48355231" d="M 594.802 320.979 C 592.61 320.979 590.833 319.202 590.833 317.01 C 590.833 314.819 592.61 313.042 594.802 313.042 C 596.994 313.042 598.771 314.819 598.771 317.01 C 598.771 319.202 596.994 320.979 594.802 320.979 Z "/>
      <path id="circle7103" fill="#ff7300" stroke-width="0.48355231" d="M 8.75 4.802 C 8.75 6.994 6.973 8.771 4.781 8.771 C 2.589 8.771 0.813 6.994 0.813 4.802 C 0.813 2.61 2.589 0.833 4.781 0.833 C 6.973 0.833 8.75 2.61 8.75 4.802 Z "/>
      <path id="circle7143" fill="#ff7300" stroke-width="0.48355231" d="M 220.417 4.802 C 220.417 6.994 218.64 8.771 216.448 8.771 C 214.256 8.771 212.479 6.994 212.479 4.802 C 212.479 2.61 214.256 0.833 216.448 0.833 C 218.64 0.833 220.417 2.61 220.417 4.802 Z "/>
      <path id="circle7129" fill="#ff7300" stroke-width="0.48355231" d="M 220.417 4.802 C 220.417 6.994 218.64 8.771 216.448 8.771 C 214.256 8.771 212.479 6.994 212.479 4.802 C 212.479 2.61 214.256 0.833 216.448 0.833 C 218.64 0.833 220.417 2.61 220.417 4.802 Z "/>
      <path id="circle7199" fill="#ff7300" stroke-width="0.48355231" d="M 432.083 4.802 C 432.083 6.994 430.306 8.771 428.115 8.771 C 425.923 8.771 424.146 6.994 424.146 4.802 C 424.146 2.61 425.923 0.833 428.115 0.833 C 430.306 0.833 432.083 2.61 432.083 4.802 Z "/>
      <path id="circle7185" fill="#ff7300" stroke-width="0.48355231" d="M 432.083 4.802 C 432.083 6.994 430.306 8.771 428.115 8.771 C 425.923 8.771 424.146 6.994 424.146 4.802 C 424.146 2.61 425.923 0.833 428.115 0.833 C 430.306 0.833 432.083 2.61 432.083 4.802 Z "/>
      <path id="circle7255" fill="#ff7300" stroke-width="0.48355231" d="M 643.75 4.802 C 643.75 6.994 641.973 8.771 639.781 8.771 C 637.589 8.771 635.813 6.994 635.813 4.802 C 635.813 2.61 637.589 0.833 639.781 0.833 C 641.973 0.833 643.75 2.61 643.75 4.802 Z "/>
      <path id="path9893" fill="#f06400" stroke="none" stroke-width="28.04583359" stroke-linejoin="round" d="M 315.667 360.667 C 315.667 389.892 291.975 413.583 262.75 413.583 C 233.525 413.583 209.833 389.892 209.833 360.667 C 209.833 331.442 233.525 307.75 262.75 307.75 C 291.975 307.75 315.667 331.442 315.667 360.667 Z "/>
    </g>
  </g>
</svg>