<svg xmlns="http://www.w3.org/2000/svg" xmlns:xlink="http://www.w3.org/1999/xlink" version="1.1" width="6.365371323634774" height="6.365371323634774" viewBox="-0.286835718656376 -0.2639357035406381 6.365371323634774 6.365371323634774">
  <!-- Exported by Scratch - http://scratch.mit.edu/ -->
  <g id="ID0.1697047888301313">
    <g id="layer1">
      <path id="path815" fill="#282828" stroke="none" stroke-width="1.073671437312752" stroke-linecap="butt" stroke-linejoin="round" d="M 2.8958 0.2729 C 1.4345 0.2729 0.25 1.4575 0.25 2.9188 C 0.25 4.38 1.4345 5.5646 2.8958 5.5646 C 4.3571 5.5646 5.5417 4.38 5.5417 2.9188 C 5.5417 1.4575 4.3571 0.2729 2.8958 0.2729 Z "/>
      <path id="path817" fill="#ffffff" stroke="none" stroke-width="0.8649999707815111" stroke-linecap="round" stroke-linejoin="round" opacity="1" d="M 2.4024 1.1582 C 2.2256 1.1579 2.0666 1.2648 2.0005 1.4286 C 1.9343 1.5924 1.9743 1.7797 2.1016 1.9022 L 3.117 2.9182 L 2.1016 3.9358 C 1.9859 4.0435 1.9383 4.2059 1.9775 4.3591 C 2.0166 4.5123 2.1362 4.6322 2.2894 4.6714 C 2.4426 4.7102 2.6051 4.6629 2.713 4.547 L 4.0354 3.2246 C 4.2039 3.0558 4.2039 2.7822 4.0354 2.6134 L 2.713 1.2894 C 2.6315 1.2053 2.5193 1.1579 2.4024 1.1582 Z "/>
    </g>
  </g>
</svg>