<svg xmlns="http://www.w3.org/2000/svg" xmlns:xlink="http://www.w3.org/1999/xlink" version="1.1" width="672.0418052696875" height="441.3248558067969" viewBox="-13.739916802629395 -13.71891677497284 672.0418052696875 441.3248558067969">
  <!-- Exported by Scratch - http://scratch.mit.edu/ -->
  <g id="ID0.5480446116998792">
    <g id="layer1">
      <path id="path6584" fill="#f2f2f2" stroke-width="0.54802597" d="M 324.133 174.135 C 324.133 176.619 322.12 178.633 319.635 178.633 C 317.151 178.633 315.138 176.619 315.138 174.135 C 315.138 171.651 317.151 169.637 319.635 169.637 C 322.12 169.637 324.133 171.651 324.133 174.135 Z "/>
      <path id="circle6619" fill="#f2f2f2" stroke-width="0.54802597" d="M 403.508 174.135 C 403.508 176.619 401.495 178.633 399.01 178.633 C 396.526 178.633 394.513 176.619 394.513 174.135 C 394.513 171.651 396.526 169.637 399.01 169.637 C 401.495 169.637 403.508 171.651 403.508 174.135 Z "/>
      <path id="circle6943" fill="#f2f2f2" stroke-width="0.54802597" d="M 157.446 166.198 C 157.446 168.682 155.432 170.696 152.948 170.696 C 150.464 170.696 148.45 168.682 148.45 166.198 C 148.45 163.714 150.464 161.7 152.948 161.7 C 155.432 161.7 157.446 163.714 157.446 166.198 Z "/>
      <path id="circle6957" fill="#f2f2f2" stroke-width="0.54802597" d="M 157.446 182.073 C 157.446 184.557 155.432 186.571 152.948 186.571 C 150.464 186.571 148.45 184.557 148.45 182.073 C 148.45 179.589 150.464 177.575 152.948 177.575 C 155.432 177.575 157.446 179.589 157.446 182.073 Z "/>
      <path id="circle6971" fill="#f2f2f2" stroke-width="0.54802597" d="M 141.571 182.073 C 141.571 184.557 139.557 186.571 137.073 186.571 C 134.589 186.571 132.575 184.557 132.575 182.073 C 132.575 179.589 134.589 177.575 137.073 177.575 C 139.557 177.575 141.571 179.589 141.571 182.073 Z "/>
      <path id="circle6985" fill="#f2f2f2" stroke-width="0.54802597" d="M 141.571 166.198 C 141.571 168.682 139.557 170.696 137.073 170.696 C 134.589 170.696 132.575 168.682 132.575 166.198 C 132.575 163.714 134.589 161.7 137.073 161.7 C 139.557 161.7 141.571 163.714 141.571 166.198 Z "/>
      <path id="circle7045" fill="#f2f2f2" stroke-width="0.54802597" d="M 594.802 242.133 C 592.318 242.133 590.304 240.12 590.304 237.635 C 590.304 235.151 592.318 233.137 594.802 233.137 C 597.286 233.137 599.3 235.151 599.3 237.635 C 599.3 240.12 597.286 242.133 594.802 242.133 Z "/>
      <path id="circle7057" fill="#f2f2f2" stroke-width="0.54802597" d="M 594.802 321.508 C 592.318 321.508 590.304 319.495 590.304 317.01 C 590.304 314.526 592.318 312.512 594.802 312.512 C 597.286 312.512 599.3 314.526 599.3 317.01 C 599.3 319.495 597.286 321.508 594.802 321.508 Z "/>
      <path id="circle7073" fill="#f2f2f2" stroke-width="0.54802597" d="M 9.279 4.802 C 9.279 7.286 7.265 9.3 4.781 9.3 C 2.297 9.3 0.283 7.286 0.283 4.802 C 0.283 2.318 2.297 0.304 4.781 0.304 C 7.265 0.304 9.279 2.318 9.279 4.802 Z "/>
      <path id="circle7075" fill="#ff7300" stroke-width="0.48355231" d="M 8.75 4.802 C 8.75 6.994 6.973 8.771 4.781 8.771 C 2.589 8.771 0.813 6.994 0.813 4.802 C 0.813 2.61 2.589 0.833 4.781 0.833 C 6.973 0.833 8.75 2.61 8.75 4.802 Z "/>
      <path id="circle7077" fill="#f2f2f2" stroke-width="0.41907865" d="M 8.221 4.802 C 8.221 6.702 6.681 8.242 4.781 8.242 C 2.882 8.242 1.342 6.702 1.342 4.802 C 1.342 2.902 2.882 1.362 4.781 1.362 C 6.681 1.362 8.221 2.902 8.221 4.802 Z "/>
      <path id="circle7079" fill="#ff7300" stroke-width="0.35460499" d="M 7.692 4.802 C 7.692 6.409 6.389 7.712 4.781 7.712 C 3.174 7.712 1.871 6.409 1.871 4.802 C 1.871 3.195 3.174 1.892 4.781 1.892 C 6.389 1.892 7.692 3.195 7.692 4.802 Z "/>
      <path id="circle7081" fill="#f2f2f2" stroke-width="0.29013136" d="M 7.163 4.802 C 7.163 6.117 6.096 7.183 4.781 7.183 C 3.466 7.183 2.4 6.117 2.4 4.802 C 2.4 3.487 3.466 2.421 4.781 2.421 C 6.096 2.421 7.163 3.487 7.163 4.802 Z "/>
      <path id="circle7083" fill="#ff7300" stroke-width="0.22565772" d="M 6.633 4.802 C 6.633 5.825 5.804 6.654 4.781 6.654 C 3.758 6.654 2.929 5.825 2.929 4.802 C 2.929 3.779 3.758 2.95 4.781 2.95 C 5.804 2.95 6.633 3.779 6.633 4.802 Z "/>
      <path id="circle7101" fill="#f2f2f2" stroke-width="0.54802597" d="M 9.279 4.802 C 9.279 7.286 7.265 9.3 4.781 9.3 C 2.297 9.3 0.283 7.286 0.283 4.802 C 0.283 2.318 2.297 0.304 4.781 0.304 C 7.265 0.304 9.279 2.318 9.279 4.802 Z "/>
      <path id="circle7127" fill="#f2f2f2" stroke-width="0.54802597" d="M 220.946 4.802 C 220.946 7.286 218.932 9.3 216.448 9.3 C 213.964 9.3 211.95 7.286 211.95 4.802 C 211.95 2.318 213.964 0.304 216.448 0.304 C 218.932 0.304 220.946 2.318 220.946 4.802 Z "/>
      <path id="circle7129" fill="#ff7300" stroke-width="0.48355231" d="M 220.417 4.802 C 220.417 6.994 218.64 8.771 216.448 8.771 C 214.256 8.771 212.479 6.994 212.479 4.802 C 212.479 2.61 214.256 0.833 216.448 0.833 C 218.64 0.833 220.417 2.61 220.417 4.802 Z "/>
      <path id="circle7131" fill="#f2f2f2" stroke-width="0.41907865" d="M 219.888 4.802 C 219.888 6.702 218.348 8.242 216.448 8.242 C 214.548 8.242 213.008 6.702 213.008 4.802 C 213.008 2.902 214.548 1.362 216.448 1.362 C 218.348 1.362 219.888 2.902 219.888 4.802 Z "/>
      <path id="circle7133" fill="#ff7300" stroke-width="0.35460499" d="M 219.358 4.802 C 219.358 6.409 218.055 7.712 216.448 7.712 C 214.841 7.712 213.538 6.409 213.538 4.802 C 213.538 3.195 214.841 1.892 216.448 1.892 C 218.055 1.892 219.358 3.195 219.358 4.802 Z "/>
      <path id="circle7135" fill="#f2f2f2" stroke-width="0.29013136" d="M 218.829 4.802 C 218.829 6.117 217.763 7.183 216.448 7.183 C 215.133 7.183 214.067 6.117 214.067 4.802 C 214.067 3.487 215.133 2.421 216.448 2.421 C 217.763 2.421 218.829 3.487 218.829 4.802 Z "/>
      <path id="circle7137" fill="#ff7300" stroke-width="0.22565772" d="M 218.3 4.802 C 218.3 5.825 217.471 6.654 216.448 6.654 C 215.425 6.654 214.596 5.825 214.596 4.802 C 214.596 3.779 215.425 2.95 216.448 2.95 C 217.471 2.95 218.3 3.779 218.3 4.802 Z "/>
      <path id="circle7141" fill="#f2f2f2" stroke-width="0.54802597" d="M 220.946 4.802 C 220.946 7.286 218.932 9.3 216.448 9.3 C 213.964 9.3 211.95 7.286 211.95 4.802 C 211.95 2.318 213.964 0.304 216.448 0.304 C 218.932 0.304 220.946 2.318 220.946 4.802 Z "/>
      <path id="circle7183" fill="#f2f2f2" stroke-width="0.54802597" d="M 432.613 4.802 C 432.613 7.286 430.599 9.3 428.115 9.3 C 425.63 9.3 423.617 7.286 423.617 4.802 C 423.617 2.318 425.63 0.304 428.115 0.304 C 430.599 0.304 432.613 2.318 432.613 4.802 Z "/>
      <path id="circle7185" fill="#ff7300" stroke-width="0.48355231" d="M 432.083 4.802 C 432.083 6.994 430.306 8.771 428.115 8.771 C 425.923 8.771 424.146 6.994 424.146 4.802 C 424.146 2.61 425.923 0.833 428.115 0.833 C 430.306 0.833 432.083 2.61 432.083 4.802 Z "/>
      <path id="circle7187" fill="#f2f2f2" stroke-width="0.41907865" d="M 431.554 4.802 C 431.554 6.702 430.014 8.242 428.115 8.242 C 426.215 8.242 424.675 6.702 424.675 4.802 C 424.675 2.902 426.215 1.362 428.115 1.362 C 430.014 1.362 431.554 2.902 431.554 4.802 Z "/>
      <path id="circle7189" fill="#ff7300" stroke-width="0.35460499" d="M 431.025 4.802 C 431.025 6.409 429.722 7.712 428.115 7.712 C 426.507 7.712 425.204 6.409 425.204 4.802 C 425.204 3.195 426.507 1.892 428.115 1.892 C 429.722 1.892 431.025 3.195 431.025 4.802 Z "/>
      <path id="circle7191" fill="#f2f2f2" stroke-width="0.29013136" d="M 430.496 4.802 C 430.496 6.117 429.43 7.183 428.115 7.183 C 426.799 7.183 425.733 6.117 425.733 4.802 C 425.733 3.487 426.799 2.421 428.115 2.421 C 429.43 2.421 430.496 3.487 430.496 4.802 Z "/>
      <path id="circle7193" fill="#ff7300" stroke-width="0.22565772" d="M 429.967 4.802 C 429.967 5.825 429.137 6.654 428.115 6.654 C 427.092 6.654 426.263 5.825 426.263 4.802 C 426.263 3.779 427.092 2.95 428.115 2.95 C 429.137 2.95 429.967 3.779 429.967 4.802 Z "/>
      <path id="circle7197" fill="#f2f2f2" stroke-width="0.54802597" d="M 432.613 4.802 C 432.613 7.286 430.599 9.3 428.115 9.3 C 425.63 9.3 423.617 7.286 423.617 4.802 C 423.617 2.318 425.63 0.304 428.115 0.304 C 430.599 0.304 432.613 2.318 432.613 4.802 Z "/>
      <path id="circle7253" fill="#f2f2f2" stroke-width="0.54802597" d="M 644.279 4.802 C 644.279 7.286 642.265 9.3 639.781 9.3 C 637.297 9.3 635.283 7.286 635.283 4.802 C 635.283 2.318 637.297 0.304 639.781 0.304 C 642.265 0.304 644.279 2.318 644.279 4.802 Z "/>
      <path id="path9893" fill="#f06400" stroke="none" stroke-width="28.04583359" stroke-linejoin="round" d="M 315.667 360.667 C 315.667 389.892 291.975 413.583 262.75 413.583 C 233.525 413.583 209.833 389.892 209.833 360.667 C 209.833 331.442 233.525 307.75 262.75 307.75 C 291.975 307.75 315.667 331.442 315.667 360.667 Z "/>
    </g>
  </g>
</svg>