<svg xmlns="http://www.w3.org/2000/svg" xmlns:xlink="http://www.w3.org/1999/xlink" version="1.1" width="133.87983322378906" height="133.87883377310547" viewBox="-13.189916731103821 -13.272916795 133.87983322378906 133.87883377310547">
  <!-- Exported by Scratch - http://scratch.mit.edu/ -->
  <g id="ID0.2002339418977499">
    <g id="layer1">
      <path id="path9893" fill="#ff7d00" stroke="none" stroke-width="28.04583359" stroke-linejoin="round" d="M 106.667 53.667 C 106.667 82.892 82.975 106.583 53.75 106.583 C 24.525 106.583 0.833 82.892 0.833 53.667 C 0.833 24.442 24.525 0.75 53.75 0.75 C 82.975 0.75 106.667 24.442 106.667 53.667 Z "/>
      <path id="path10475" fill="#ffffff" stroke="none" stroke-width="25.2412529" stroke-linejoin="round" d="M 101.375 53.667 C 101.375 79.969 80.053 101.292 53.75 101.292 C 27.447 101.292 6.125 79.969 6.125 53.667 C 6.125 27.364 27.447 6.042 53.75 6.042 C 80.053 6.042 101.375 27.364 101.375 53.667 Z "/>
      <path id="path10477" fill="#ff7d00" stroke="none" stroke-width="22.4366703" stroke-linejoin="round" d="M 96.083 53.667 C 96.083 77.047 77.13 96 53.75 96 C 30.37 96 11.417 77.047 11.417 53.667 C 11.417 30.287 30.37 11.333 53.75 11.333 C 77.13 11.333 96.083 30.287 96.083 53.667 Z "/>
    </g>
  </g>
</svg>