<svg xmlns="http://www.w3.org/2000/svg" xmlns:xlink="http://www.w3.org/1999/xlink" version="1.1" width="676.27483749625" height="443.44182968375003" viewBox="-13.855916799291535 -13.835916788562699 676.27483749625 443.44182968375003">
  <!-- Exported by Scratch - http://scratch.mit.edu/ -->
  <g id="ID0.7929957387968898">
    <g id="layer1">
      <path id="rect6576" fill="#ff7300" stroke-width="0.26414573" d="M 317.667 169.521 L 325.604 169.521 C 327.07 169.521 328.25 170.701 328.25 172.167 L 328.25 180.104 C 328.25 181.57 327.07 182.75 325.604 182.75 L 317.667 182.75 C 316.201 182.75 315.021 181.57 315.021 180.104 L 315.021 172.167 C 315.021 170.701 316.201 169.521 317.667 169.521 Z "/>
      <path id="rect6578" fill="#ff7300" stroke-width="0.26414573" d="M 397.042 169.521 L 404.979 169.521 C 406.445 169.521 407.625 170.701 407.625 172.167 L 407.625 180.104 C 407.625 181.57 406.445 182.75 404.979 182.75 L 397.042 182.75 C 395.576 182.75 394.396 181.57 394.396 180.104 L 394.396 172.167 C 394.396 170.701 395.576 169.521 397.042 169.521 Z "/>
      <path id="rect6941" fill="#ff7300" stroke-width="0.26414573" d="M 150.979 161.583 L 158.917 161.583 C 160.382 161.583 161.562 162.763 161.562 164.229 L 161.562 172.167 C 161.562 173.632 160.382 174.812 158.917 174.812 L 150.979 174.812 C 149.513 174.812 148.333 173.632 148.333 172.167 L 148.333 164.229 C 148.333 162.763 149.513 161.583 150.979 161.583 Z "/>
      <path id="rect6955" fill="#ff7300" stroke-width="0.26414573" d="M 150.979 177.458 L 158.917 177.458 C 160.382 177.458 161.562 178.638 161.562 180.104 L 161.562 188.042 C 161.562 189.507 160.382 190.687 158.917 190.687 L 150.979 190.687 C 149.513 190.687 148.333 189.507 148.333 188.042 L 148.333 180.104 C 148.333 178.638 149.513 177.458 150.979 177.458 Z "/>
      <path id="rect6969" fill="#ff7300" stroke-width="0.26414573" d="M 135.104 177.458 L 143.042 177.458 C 144.507 177.458 145.688 178.638 145.688 180.104 L 145.688 188.042 C 145.688 189.507 144.507 190.687 143.042 190.687 L 135.104 190.687 C 133.638 190.687 132.458 189.507 132.458 188.042 L 132.458 180.104 C 132.458 178.638 133.638 177.458 135.104 177.458 Z "/>
      <path id="rect6983" fill="#ff7300" stroke-width="0.26414573" d="M 135.104 161.583 L 143.042 161.583 C 144.507 161.583 145.688 162.763 145.688 164.229 L 145.688 172.167 C 145.688 173.632 144.507 174.812 143.042 174.812 L 135.104 174.812 C 133.638 174.812 132.458 173.632 132.458 172.167 L 132.458 164.229 C 132.458 162.763 133.638 161.583 135.104 161.583 Z "/>
      <path id="rect7041" fill="#ff7300" stroke-width="0.26414573" d="M 603.417 235.667 L 603.417 243.604 C 603.417 245.07 602.237 246.25 600.771 246.25 L 592.833 246.25 C 591.368 246.25 590.188 245.07 590.188 243.604 L 590.188 235.667 C 590.188 234.201 591.368 233.021 592.833 233.021 L 600.771 233.021 C 602.237 233.021 603.417 234.201 603.417 235.667 Z "/>
      <path id="rect7043" fill="#ff7300" stroke-width="0.26414573" d="M 603.417 315.042 L 603.417 322.979 C 603.417 324.445 602.237 325.625 600.771 325.625 L 592.833 325.625 C 591.368 325.625 590.188 324.445 590.188 322.979 L 590.188 315.042 C 590.188 313.576 591.368 312.396 592.833 312.396 L 600.771 312.396 C 602.237 312.396 603.417 313.576 603.417 315.042 Z "/>
      <path id="rect7097" fill="#ff7300" stroke-width="0.26414573" d="M 2.813 0.187 L 10.75 0.187 C 12.216 0.187 13.396 1.368 13.396 2.833 L 13.396 10.771 C 13.396 12.237 12.216 13.417 10.75 13.417 L 2.813 13.417 C 1.347 13.417 0.167 12.237 0.167 10.771 L 0.167 2.833 C 0.167 1.368 1.347 0.187 2.813 0.187 Z "/>
      <path id="rect7125" fill="#ff7300" stroke-width="0.26414573" d="M 214.479 0.187 L 222.417 0.187 C 223.882 0.187 225.063 1.368 225.063 2.833 L 225.063 10.771 C 225.063 12.237 223.882 13.417 222.417 13.417 L 214.479 13.417 C 213.013 13.417 211.833 12.237 211.833 10.771 L 211.833 2.833 C 211.833 1.368 213.013 0.187 214.479 0.187 Z "/>
      <path id="rect7139" fill="#ff7300" stroke-width="0.26414573" d="M 214.479 0.187 L 222.417 0.187 C 223.882 0.187 225.063 1.368 225.063 2.833 L 225.063 10.771 C 225.063 12.237 223.882 13.417 222.417 13.417 L 214.479 13.417 C 213.013 13.417 211.833 12.237 211.833 10.771 L 211.833 2.833 C 211.833 1.368 213.013 0.187 214.479 0.187 Z "/>
      <path id="rect7195" fill="#ff7300" stroke-width="0.26414573" d="M 426.146 0.187 L 434.083 0.187 C 435.549 0.187 436.729 1.368 436.729 2.833 L 436.729 10.771 C 436.729 12.237 435.549 13.417 434.083 13.417 L 426.146 13.417 C 424.68 13.417 423.5 12.237 423.5 10.771 L 423.5 2.833 C 423.5 1.368 424.68 0.187 426.146 0.187 Z "/>
      <path id="rect7279" fill="#ff7300" stroke-width="0.26414573" d="M 637.813 0.187 L 645.75 0.187 C 647.216 0.187 648.396 1.368 648.396 2.833 L 648.396 10.771 C 648.396 12.237 647.216 13.417 645.75 13.417 L 637.813 13.417 C 636.347 13.417 635.167 12.237 635.167 10.771 L 635.167 2.833 C 635.167 1.368 636.347 0.187 637.813 0.187 Z "/>
      <path id="path9893" fill="#f06400" stroke="none" stroke-width="28.04583359" stroke-linejoin="round" d="M 317.667 362.667 C 317.667 391.892 293.975 415.583 264.75 415.583 C 235.525 415.583 211.833 391.892 211.833 362.667 C 211.833 333.442 235.525 309.75 264.75 309.75 C 293.975 309.75 317.667 333.442 317.667 362.667 Z "/>
    </g>
  </g>
</svg>