<svg xmlns="http://www.w3.org/2000/svg" xmlns:xlink="http://www.w3.org/1999/xlink" version="1.1" width="115.00161655696141" height="120.0317908123325" viewBox="-6.767322102943593 -7.296554604927236 115.00161655696141 120.0317908123325">
  <!-- Exported by Scratch - http://scratch.mit.edu/ -->
  <g id="ID0.3023474090732634">
    <g id="layer1">
      <g id="text1370">
        <path id="path1419" fill="#ffffff" stroke="none" stroke-width="14.99999912532078" stroke-linecap="butt" stroke-linejoin="round" opacity="1" d="M 52.3399 0.2038 C 48.0624 0.2199 43.8269 0.7853 39.6962 1.8921 C 25.9612 5.5721 14.8812 14.0888 7.801 26.4115 C 0.7271 38.7231 -1.0869 52.5539 2.5834 66.2514 C 6.2616 79.9793 14.7503 91.0603 27.0357 98.1533 C 39.3208 105.2462 53.1611 107.057 66.8891 103.3788 C 80.1068 99.8371 91.1887 90.886 99.5505 77.8291 C 100.6935 76.0436 101.0277 73.8582 100.4705 71.8127 C 99.9133 69.7675 98.5168 68.0535 96.6261 67.0946 L 91.0042 64.2448 L 86.3968 61.9085 C 82.9958 60.1845 78.8427 61.2865 76.7437 64.4695 C 71.6989 72.1201 66.2937 76.1471 60.0419 77.8222 C 52.8556 79.7478 46.8254 78.9615 40.3093 75.2271 C 33.8452 71.4936 30.1421 66.6634 28.1932 59.3897 C 26.2559 52.16 27.0462 46.1426 30.7785 39.6732 C 34.5549 33.178 39.384 29.4812 46.5722 27.5551 C 52.8243 25.8797 59.5191 26.6645 67.7132 30.7676 C 71.1409 32.484 75.3107 31.3394 77.3824 28.1141 L 83.6197 18.4015 C 84.7598 16.6256 85.099 14.4516 84.554 12.4127 C 84.0092 10.3738 82.6304 8.6588 80.7564 7.6885 C 71.2893 2.789 61.7508 0.1683 52.3399 0.2038 Z "/>
      </g>
    </g>
  </g>
</svg>