<svg xmlns="http://www.w3.org/2000/svg" xmlns:xlink="http://www.w3.org/1999/xlink" version="1.1" width="118.74208774380881" height="118.74217929654318" viewBox="-11.530891131425893 -11.406192492509877 118.74208774380881 118.74217929654318">
  <!-- Exported by Scratch - http://scratch.mit.edu/ -->
  <g id="ID0.06661451375111938">
    <g id="layer1">
      <path id="path5105" fill="#adaca7" stroke="none" stroke-width="14.708019634191634" d="M 40.9326 48.2595 L 39.6491 40.4968 C 39.6491 40.4968 38.3547 41.786 37.13 42.0123 C 35.6299 42.2898 20.0266 43.6427 20.0266 43.6427 L 20.2707 52.4575 C 20.2707 52.4575 36.2198 53.6624 37.7843 54.2206 C 38.9077 54.6213 40.0362 55.5812 40.0362 55.5812 L 40.9326 48.2595 Z M 33.7243 48.0259 C 33.7368 48.7003 33.334 49.3597 32.592 49.5039 L 22.5434 48.9357 C 21.396 48.8328 21.3558 47.0863 22.44 47.0041 L 32.3746 46.4598 C 33.288 46.6629 33.7122 47.3515 33.7243 48.0259 Z "/>
      <path id="path5047" fill="#1a1a1a" stroke="none" stroke-width="14.206275591562227" d="M 95.4651 47.9 C 95.4293 21.597 74.0782 0.3041 47.7752 0.3399 C 21.4723 0.3758 0.1793 21.7268 0.2152 48.0298 C 0.2511 74.3328 21.6021 95.6257 47.9051 95.5899 C 74.2081 95.554 95.501 74.203 95.4651 47.9 Z M 86.3451 47.9124 C 86.3741 69.1784 69.1586 86.4409 47.8926 86.4699 C 26.6267 86.4989 9.3642 69.2834 9.3352 48.0174 C 9.3062 26.7514 26.5217 9.4889 47.7877 9.4599 C 69.0536 9.4309 86.3161 26.6464 86.3451 47.9124 Z "/>
      <path id="path3800" fill="#adaca7" stroke="none" stroke-width="14.70801984925593" d="M 58.4925 40.1594 L 51.2095 40.1383 L 43.7103 37.0865 C 43.7103 37.0865 45.0705 35.7747 45.544 34.679 C 46.203 33.1551 48.687 19.2417 48.687 19.2417 L 57.3351 20.0379 C 57.3351 20.0379 57.0251 35.4744 57.2042 36.9891 C 57.3499 38.2259 58.4925 40.1594 58.4925 40.1594 Z M 53.731 21.4178 C 53.7374 20.2658 52.0041 20.0612 51.8186 21.1315 L 50.33 30.9685 C 50.5605 32.8252 52.9107 32.926 53.3387 31.4764 Z "/>
      <path id="path5102" fill="#adaca7" stroke="none" stroke-width="14.70801984925593" d="M 58.4908 55.7584 L 51.2078 55.7993 L 43.717 58.8715 C 43.717 58.8715 45.0798 60.1797 45.5563 61.273 C 46.2204 62.7961 48.7423 76.7017 48.7423 76.7017 L 57.3882 75.8829 C 57.3882 75.8829 57.0362 60.4474 57.2101 58.9321 C 57.3524 57.6949 58.4908 55.7584 58.4908 55.7584 Z M 53.7804 74.5128 C 53.7899 75.6648 52.0562 75.8742 51.8687 74.8034 L 50.3533 64.9715 C 50.5778 63.1142 52.9277 63.007 53.3606 64.4554 Z "/>
      <path id="rect5052" fill="#1a1a1a" stroke="none" stroke-width="14.70801984925593" d="M 61.2229 11.8496 C 61.2229 11.8496 59.8423 11.3735 59.5286 12.3329 C 59.2757 13.1063 58.8228 16.8919 58.3604 18.8115 C 58.2908 19.1016 57.903 19.2112 57.7583 19.4724 C 57.6496 19.6685 57.8161 20.0283 57.6155 20.3516 C 57.3491 20.7809 48.6558 19.8288 48.385 19.2391 C 48.2115 18.8594 48.3872 18.6251 48.3267 18.2732 C 48.2743 17.9713 48.0659 17.7106 48.0055 17.4096 C 47.5756 15.2702 47.9848 13.2067 47.7058 11.0431 C 47.5047 9.4873 45.8327 9.4926 45.8327 9.4926 L 54.1488 5.8663 Z "/>
      <path id="rect5052-3" fill="#1a1a1a" stroke="none" stroke-width="14.70801984925593" d="M 61.3214 84.0856 C 61.3214 84.0856 59.9421 84.5654 59.6258 83.6069 C 59.3707 82.8342 58.9075 79.0498 58.4399 77.1315 C 58.3695 76.8426 57.9814 76.7331 57.836 76.4733 C 57.7268 76.2764 57.8933 75.9162 57.6908 75.5945 C 57.4232 75.1649 48.7326 76.1407 48.4634 76.7321 C 48.2909 77.1123 48.4672 77.3451 48.4077 77.6972 C 48.3561 78.0002 48.1485 78.2605 48.0889 78.5616 C 47.6648 80.7022 48.0796 82.7646 47.8065 84.929 C 47.6097 86.4852 45.9497 86.4765 45.9497 86.4765 L 54.3993 86.908 Z "/>
      <path id="circle5090" fill="#adaca7" stroke="none" stroke-width="23.492087743808817" d="M 61.3171 47.9465 C 61.3217 51.3015 59.9629 54.3434 57.7649 56.5474 C 55.5669 58.7514 52.5287 60.1185 49.1737 60.1231 C 45.8197 60.1277 42.7779 58.7688 40.5739 56.5708 C 38.3689 54.3728 37.0027 51.3347 36.9982 47.9797 C 36.9936 44.6247 38.3515 41.5828 40.5504 39.3788 C 42.7484 37.1748 45.7866 35.8077 49.1406 35.8031 C 52.4956 35.7985 55.5374 37.1574 57.7414 39.3554 C 59.9454 41.5534 61.3126 44.5915 61.3171 47.9465 Z "/>
      <path id="path5070" fill="#1a1a1a" stroke="none" stroke-width="13.703715943888524" d="M 56.2502 47.9534 C 56.2528 49.9104 55.4612 51.6845 54.179 52.9703 C 52.8967 54.256 51.1238 55.0534 49.1668 55.0561 C 47.2098 55.0588 45.4357 54.2662 44.15 52.9839 C 42.8642 51.7017 42.0668 49.9298 42.0642 47.9728 C 42.0615 46.0158 42.8541 44.2417 44.1363 42.9559 C 45.4186 41.6702 47.1905 40.8728 49.1475 40.8701 C 51.1045 40.8674 52.8796 41.66 54.1653 42.9423 C 55.4511 44.2245 56.2475 45.9964 56.2502 47.9534 Z "/>
      <path id="rect5087" fill="#1a1a1a" stroke="none" stroke-width="14.70801984925593" d="M 20.2542 43.5975 C 20.3196 43.8814 20.3523 52.4644 20.2017 52.7746 C 20.097 52.9897 19.7157 52.8042 19.4949 52.8945 C 19.3209 52.9648 18.8625 53.3604 18.5516 53.4578 C 18.2927 53.5392 12.7673 53.2517 11.5951 53.8073 C 10.2 54.4672 10.3843 56.927 10.3843 56.927 L 7.3856 47.556 L 10.4764 38.6338 C 10.4764 38.6338 9.8541 40.6437 11.391 41.9686 C 12.1879 42.6555 18.158 42.6974 18.4171 42.771 C 18.6501 42.8377 19.1317 43.229 19.3358 43.2848 C 19.5108 43.3325 20.0668 43.3338 20.2542 43.5975 Z "/>
      <path id="path5111" fill="#4d4d4d" stroke="none" stroke-width="16.64022595186465" d="M 60.2682 48.018 C 60.2688 48.438 60.0983 48.8182 59.8237 49.0936 C 59.5491 49.3689 59.1693 49.5395 58.7503 49.54 C 58.3303 49.5406 57.9501 49.3711 57.6747 49.0965 C 57.3993 48.8219 57.2288 48.4421 57.2282 48.0221 C 57.2277 47.6031 57.3972 47.2229 57.6718 46.9475 C 57.9464 46.6721 58.3262 46.5006 58.7462 46.5 C 59.1652 46.4995 59.5454 46.6699 59.8208 46.9446 C 60.0962 47.2192 60.2677 47.599 60.2682 48.018 Z "/>
      <path id="circle5113" fill="#4d4d4d" stroke="none" stroke-width="16.64022595186465" d="M 55.4199 39.6956 C 55.4205 40.1146 55.251 40.4948 54.9764 40.7702 C 54.7007 41.0465 54.321 41.2171 53.902 41.2176 C 53.483 41.2182 53.1027 41.0487 52.8274 40.7731 C 52.552 40.4985 52.3805 40.1187 52.3799 39.6997 C 52.3793 39.2807 52.5498 38.9005 52.8244 38.6241 C 53.0991 38.3487 53.4788 38.1782 53.8978 38.1776 C 54.3168 38.1771 54.6971 38.3465 54.9734 38.6212 C 55.2488 38.8968 55.4193 39.2766 55.4199 39.6956 Z "/>
      <path id="circle5115" fill="#4d4d4d" stroke="none" stroke-width="16.64022595186465" d="M 45.837 39.7976 C 45.8376 40.2176 45.6671 40.5979 45.3925 40.8732 C 45.1179 41.1486 44.7381 41.3191 44.3191 41.3197 C 43.8991 41.3203 43.5189 41.1508 43.2435 40.8762 C 42.9681 40.6015 42.7976 40.2218 42.797 39.8018 C 42.7965 39.3828 42.9659 39.0025 43.2406 38.7272 C 43.5152 38.4518 43.895 38.2813 44.315 38.2807 C 44.734 38.2801 45.1142 38.4496 45.3896 38.7242 C 45.6649 38.9989 45.8365 39.3786 45.837 39.7976 Z "/>
      <path id="circle5117" fill="#4d4d4d" stroke="none" stroke-width="16.64022595186465" d="M 41.2354 48.1339 C 41.236 48.5529 41.0665 48.9331 40.7918 49.2085 C 40.5172 49.4849 40.1375 49.6554 39.7175 49.656 C 39.2985 49.6565 38.9182 49.4871 38.6429 49.2114 C 38.3675 48.9368 38.196 48.557 38.1954 48.138 C 38.1948 47.719 38.3653 47.3388 38.6399 47.0624 C 38.9145 46.7871 39.2943 46.6165 39.7133 46.616 C 40.1333 46.6154 40.5135 46.7849 40.7889 47.0595 C 41.0643 47.3351 41.2348 47.7149 41.2354 48.1339 Z "/>
      <path id="circle5119" fill="#4d4d4d" stroke="none" stroke-width="16.64022595186465" d="M 46.0385 56.2774 C 46.0391 56.6974 45.8696 57.0776 45.594 57.353 C 45.3193 57.6283 44.9396 57.7989 44.5206 57.7994 C 44.1016 57.8 43.7213 57.6305 43.445 57.3559 C 43.1696 57.0813 42.9991 56.7015 42.9985 56.2815 C 42.9979 55.8625 43.1674 55.4823 43.442 55.2069 C 43.7177 54.9315 44.0974 54.76 44.5164 54.7594 C 44.9354 54.7589 45.3157 54.9293 45.591 55.204 C 45.8674 55.4786 46.0379 55.8584 46.0385 56.2774 Z "/>
      <path id="circle5121" fill="#4d4d4d" stroke="none" stroke-width="16.64022595186465" d="M 55.6215 56.3093 C 55.6221 56.7283 55.4526 57.1085 55.178 57.3839 C 54.9034 57.6603 54.5236 57.8308 54.1036 57.8314 C 53.6846 57.8319 53.3044 57.6625 53.029 57.3868 C 52.7536 57.1122 52.5821 56.7324 52.5815 56.3134 C 52.581 55.8944 52.7515 55.5142 53.0261 55.2378 C 53.3007 54.9625 53.6805 54.7919 54.0995 54.7914 C 54.5195 54.7908 54.8997 54.9603 55.1751 55.2349 C 55.4505 55.5105 55.621 55.8903 55.6215 56.3093 Z "/>
    </g>
  </g>
</svg>