<svg xmlns="http://www.w3.org/2000/svg" xmlns:xlink="http://www.w3.org/1999/xlink" version="1.1" width="1296.986904144287" height="920.8028221130371" viewBox="-52.83856983482838 -52.584969848394394 1296.986904144287 920.8028221130371">
  <!-- Exported by Scratch - http://scratch.mit.edu/ -->
  <g id="ID0.29829051438719034">
    <g id="layer1">
      <path id="rect2015" fill="#f2f3f0" stroke="none" stroke-width="21.166667938232422" stroke-linecap="butt" stroke-linejoin="round" d="M 125.5628 68.2363 L 70.6356 202.8089 L 238.0362 304.8838 L 110.9158 525.6604 L 136.5489 740.7931 L 1108.1558 735.9108 L 1030.0365 442.3539 L 1115.4795 80.442 L 125.5628 68.2363 Z "/>
      <path id="path2373" fill="#fa1e1e" stroke="none" stroke-width="21.166667938232422" stroke-linecap="butt" stroke-linejoin="round" opacity="1" d="M 185.6936 0.3323 C 171.1138 0.3545 156.4942 0.8842 142.0432 2.9281 L 145.0057 23.8868 C 158.517 21.9463 172.1782 21.5709 185.8069 21.5005 L 185.6936 0.3323 Z M 215.1621 0.3323 L 215.1621 21.5 L 240.002 21.5 L 257.496 21.5 L 257.496 0.3323 L 240.002 0.3323 L 215.1621 0.3323 Z M 299.8299 0.3323 L 299.8299 21.5 L 342.1621 21.5 L 342.1621 0.3323 L 299.8299 0.3323 Z M 384.496 0.3323 L 384.496 21.5 L 426.8299 21.5 L 426.8299 0.3323 L 384.496 0.3323 Z M 469.1622 0.3323 L 469.1622 21.5 L 511.496 21.5 L 511.496 0.3323 L 469.1622 0.3323 Z M 553.8299 0.3323 L 553.8299 21.5 L 596.1622 21.5 L 596.1622 0.3323 L 553.8299 0.3323 Z M 638.496 0.3323 L 638.496 21.5 L 680.8299 21.5 L 680.8299 0.3323 L 638.496 0.3323 Z M 723.1622 0.3323 L 723.1622 21.5 L 765.496 21.5 L 765.496 0.3323 L 723.1622 0.3323 Z M 807.8299 0.3323 L 807.8299 21.5 L 850.1622 21.5 L 850.1622 0.3323 L 807.8299 0.3323 Z M 892.496 0.3323 L 892.496 21.5 L 934.8299 21.5 L 934.8299 0.3323 L 892.496 0.3323 Z M 977.1622 0.3323 L 977.1622 21.5 L 1019.496 21.5 L 1019.496 0.3323 L 977.1622 0.3323 Z M 1063.3124 3.1347 L 1060.0823 24.0548 C 1073.1522 26.0516 1085.9604 29.6743 1098.1038 34.9064 L 1106.4826 15.4688 C 1092.7168 9.4747 1078.1372 5.444 1063.3124 3.1347 Z M 98.7931 13.9181 C 84.5352 19.2828 71.369 27.1359 59.4884 36.6231 L 72.6954 53.1643 C 82.8091 44.9442 94.2063 38.323 106.3869 33.6761 L 98.7931 13.9181 Z M 1144.8826 40.1505 L 1130.5586 55.7347 C 1143.887 73.5348 1139.111 59.6384 1154.1581 86.5489 L 1172.6268 76.2087 C 1165.2421 62.9396 1156.1174 50.4409 1144.8826 40.1505 Z M 28.787 69.6682 L 28.7756 69.6817 L 28.6385 69.8791 C 20.1227 82.2639 12.9601 95.6871 8.0802 109.9298 L 28.1054 116.7852 C 32.385 104.3127 38.7245 92.6721 46.1291 81.8007 L 38.0273 76.2791 L 28.787 69.6682 Z M 228.0839 106.1661 L 181.0272 106.209 L 181.545 127.3696 L 181.6154 127.3675 L 181.6328 127.3675 L 185.75 127.3323 L 185.75 127.3344 L 228.0839 127.3344 L 228.0839 106.1661 Z M 270.4161 106.1661 L 270.4161 127.3339 L 312.75 127.3339 L 312.75 106.1661 L 270.4161 106.1661 Z M 355.0839 106.1661 L 355.0839 127.3339 L 397.4161 127.3339 L 397.4161 106.1661 L 355.0839 106.1661 Z M 439.75 106.1661 L 439.75 127.3339 L 482.0839 127.3339 L 482.0839 106.1661 L 439.75 106.1661 Z M 524.4162 106.1661 L 524.4162 127.3339 L 566.75 127.3339 L 566.75 106.1661 L 524.4162 106.1661 Z M 609.0839 106.1661 L 609.0839 127.3339 L 651.4162 127.3339 L 651.4162 106.1661 L 609.0839 106.1661 Z M 693.75 106.1661 L 693.75 127.3339 L 736.0839 127.3339 L 736.0839 106.1661 L 693.75 106.1661 Z M 778.4162 106.1661 L 778.4162 127.3339 L 820.75 127.3339 L 820.75 106.1661 L 778.4162 106.1661 Z M 863.0839 106.1661 L 863.0839 127.3339 L 905.4162 127.3339 L 905.4162 106.1661 L 863.0839 106.1661 Z M 947.75 106.1661 L 947.75 127.3339 L 990.0839 127.3339 L 990.0839 106.1661 L 947.75 106.1661 Z M 1033.2695 106.635 L 1031.5407 127.7307 C 1041.2101 128.8317 1056.6647 130.2289 1064.6954 136.5332 L 1064.7263 136.4924 L 1064.8261 136.5551 C 1068.6276 130.6229 1075.293 127.2397 1080.9532 123.3791 C 1078.0391 119.0058 1070.789 115.3392 1065.0081 113.0117 C 1054.8542 109.2237 1044.0327 107.5211 1033.2695 106.635 Z M 135.3985 113.2893 C 118.4844 120.0441 106.4298 156.1367 106.4298 156.1367 L 127.5861 156.2753 C 128.2912 145.0371 133.761 137.0721 143.8358 132.7009 L 135.3985 113.2893 Z M 1188.2206 119.0175 L 1167.4296 122.9921 C 1170.3263 136.1064 1170.1064 149.5448 1169.7654 162.8846 L 1190.926 163.422 C 1191.7184 148.5278 1191.0228 133.6677 1188.2206 119.0175 Z M 0.0781 154.5002 C 0.2768 170.2911 2.512 186.4201 5.977 199.4318 L 26.4068 193.9004 C 22.7264 181.3419 21.2069 168.3199 21.2329 155.2638 L 21.235 155.2014 L 21.2329 155.2014 L 21.2329 155.0799 L 17.3893 155.0744 L 0.0781 154.5002 Z M 1063.4195 170.6253 C 1062.5435 184.3249 1060.9393 197.9803 1058.6285 211.5116 L 1079.4914 215.0784 C 1081.9094 200.7909 1083.6562 186.3775 1084.5489 171.9119 L 1063.4195 170.6253 Z M 140.9238 185.5271 L 126.8651 201.3516 C 141.1547 214.3281 155.4645 211.5724 173.5294 212.7152 L 174.8653 191.5898 C 163.1128 190.0557 150.394 193.9814 140.9238 185.5271 Z M 218.9806 199.789 L 212.4647 219.9277 C 224.735 223.824 236.3733 229.7377 246.506 237.7048 L 259.5605 221.0429 C 247.5019 211.483 233.5861 204.5152 218.9806 199.789 Z M 1166.683 204.0588 C 1165.0854 217.7931 1162.8576 231.4503 1160.0602 244.9904 L 1180.7884 249.2695 C 1183.7841 235.1836 1185.9285 220.9374 1187.6909 206.6504 L 1166.683 204.0588 Z M 42.0156 229.8475 L 23.9806 240.9296 C 31.5971 253.8862 41.2203 265.4824 51.9748 275.9355 L 66.7303 260.7619 C 55.4448 247.6132 51.1424 243.1108 49.7277 241.9146 C 48.8964 240.3819 46.7702 236.9407 42.0156 229.8475 Z M 1049.3733 251.3298 C 1045.3956 263.9951 1040.1627 276.2578 1033.7499 287.8791 L 1033.6777 288.0021 L 1051.9607 298.668 C 1059.2473 285.6806 1065.1232 271.8705 1069.5706 257.6602 L 1049.3733 251.3298 Z M 290.3983 254.2971 L 272.9747 266.3166 C 280.4351 277.3775 288.1866 288.3215 293.2441 300.7304 L 312.8476 292.7461 C 307.3837 278.8848 298.8139 266.5068 290.3983 254.2971 Z M 98.5801 283.2928 L 88.9808 302.1584 C 102.5065 309.1685 117.1655 313.6744 132.1663 316.1424 L 135.6093 295.258 C 122.7262 293.2776 110.1932 289.2078 98.5801 283.2928 Z M 1149.9161 285.043 C 1146.024 298.1158 1141.4899 311.0145 1135.7831 323.4102 L 1155.0098 332.2656 C 1161.209 319.0515 1165.8622 305.1945 1170.1485 291.2639 L 1149.9161 285.043 Z M 177.7871 298.1388 L 174.3729 319.0293 C 184.5348 320.0156 188.5477 331.1022 193.7579 338.6563 L 197.2226 336.2679 L 211.4027 340.6 C 214.8785 335.906 210.283 303.4792 177.7871 298.1388 Z M 1006.9593 317.7286 C 996.8927 329.533 987.3738 342.0276 980.5314 353.3732 L 998.6953 364.2384 C 1005.407 352.6345 1013.7242 342.0941 1022.5507 332.0449 L 1022.5978 331.9941 L 1022.6075 331.9825 L 1022.6763 331.9044 C 1017.3484 327.2784 1012.175 322.4794 1006.9593 317.7286 Z M 298.2733 337.6678 C 297.3925 350.6872 293.7593 363.3372 289.0177 375.4334 L 308.7207 383.1643 C 314.2732 369.0559 318.4534 354.1887 319.3987 338.9923 L 298.2733 337.6678 Z M 1115.1368 357.2459 C 1106.3334 368.0653 1095.9008 377.3871 1086.633 387.7971 L 1102.4435 401.8711 C 1111.9251 391.169 1122.6672 381.6641 1131.6371 370.5061 L 1115.1368 357.2459 Z M 170.705 365.7343 C 161.7584 375.6019 151.4248 384.0758 140.4845 391.6251 L 152.4982 409.0511 C 164.8003 400.6392 176.3872 391.0213 186.3924 379.9432 L 170.705 365.7343 Z M 962.9414 394.8282 C 958.9361 409.2636 956.9618 424.1966 956.535 439.1541 L 977.6929 439.752 C 978.0303 426.5073 979.8162 413.268 983.3381 400.4847 L 962.9414 394.8282 Z M 270.164 410.5878 C 262.7363 421.7577 254.0834 432.0336 244.8632 441.7533 L 244.8203 441.7983 L 244.6735 441.9473 L 259.8029 456.7499 L 260.0622 456.4843 L 260.176 456.3671 C 270.3143 445.9092 279.4638 434.5366 287.6601 422.5033 L 270.164 410.5878 Z M 105.9477 418.5817 C 95.1117 428.4948 85.0871 439.2954 76.0741 450.8923 L 92.7873 463.8807 C 101.0447 453.1384 110.4033 443.3035 120.3365 434.1074 L 105.9477 418.5817 Z M 1062.8943 428.92 C 1060.1067 444.1449 1063.6346 459.6408 1066.2328 474.6233 L 1087.0884 471.0038 C 1085.3691 458.4721 1081.3392 445.508 1083.7073 432.7792 L 1062.8943 428.92 Z M 214.1797 468.9729 C 203.0082 477.4533 191.1388 484.9336 179.8889 493.309 L 179.7188 493.4376 L 179.5839 493.541 L 191.2113 508.5178 L 192.5273 510.2873 L 192.5625 510.2598 L 192.5646 510.2624 L 192.6231 510.2175 C 203.8478 501.7529 215.7979 494.3313 226.9919 485.8231 L 214.1797 468.9729 Z M 981.2302 479.6462 L 960.4045 483.4355 C 962.9808 497.6415 965.8901 511.8145 969.8009 525.721 L 990.176 519.9885 C 986.4652 506.7125 983.6924 493.2016 981.2302 479.6462 Z M 52.2206 487.994 L 52.0703 488.2814 L 51.9825 488.4494 C 45.2986 501.473 39.6537 515.0678 35.5137 529.1193 L 55.8163 535.1039 C 59.572 522.2872 64.8044 509.9725 70.834 498.0747 L 70.8613 498.0218 L 70.9256 497.9024 L 52.2206 487.994 Z M 1096.0506 510.6604 L 1076.0002 517.4453 C 1081.1093 532.1213 1090.8248 546.7416 1099.5899 557.0215 L 1115.6448 543.2269 C 1107.1075 533.6894 1100.1757 522.8145 1096.0506 510.6604 Z M 147.3772 525.6604 C 138.2687 538.6967 133.1085 554.0034 131.295 569.7405 L 152.3241 572.1522 C 153.5587 559.6805 157.9193 547.8611 164.9141 537.5119 L 147.3772 525.6604 Z M 1003.6737 558.5764 L 984.2461 566.9769 C 990.1823 580.4733 997.0954 593.6028 1005.3355 605.8458 L 1022.8983 594.033 C 1015.4911 582.799 1009.0119 570.9317 1003.6737 558.5764 Z M 26.7968 572.4845 C 25.1905 587.0945 25.0413 601.8284 25.9586 616.4884 L 47.084 615.1642 C 46.1272 601.6556 46.4839 588.0878 47.8555 574.6229 L 26.7968 572.4845 Z M 1144.586 574.516 L 1128.1427 587.8438 C 1136.5178 598.2073 1144.1145 609.3103 1150.074 621.252 L 1168.9981 611.7693 C 1162.2904 598.4793 1153.9515 586.069 1144.586 574.516 Z M 152.9411 611.967 L 131.916 614.3987 C 133.566 629.0577 135.8861 643.7183 140.2731 657.8322 L 160.4878 651.5608 C 156.4757 638.7002 154.4913 625.3162 152.9411 611.967 Z M 1048.0546 625.8793 L 1032.613 640.3554 C 1041.7943 650.3183 1052.1155 659.3557 1059.8146 670.5902 L 1077.2776 658.627 C 1069.0046 646.4811 1058.0556 636.5396 1048.0546 625.8793 Z M 1184.8379 653.2345 L 1164.3946 658.7225 C 1167.7971 671.5339 1169.7389 684.7292 1169.9826 697.9827 L 1191.1466 697.5901 C 1190.8916 682.6295 1188.6995 667.6887 1184.8379 653.2345 Z M 52.5601 655.7891 L 52.4238 655.8164 L 31.762 659.719 L 31.7889 659.8594 L 31.8162 660.0021 C 34.6181 674.3621 38.4176 688.539 43.5939 702.2306 L 63.3947 694.7498 C 58.5309 682.1445 55.2376 669.0127 52.5601 655.791 L 52.5601 655.7891 Z M 179.3577 678.6811 L 169.5334 697.4298 C 183.3383 704.6555 199.0347 707.1249 214.3851 708.4944 L 216.2578 687.4102 C 203.702 686.2138 190.6966 684.5879 179.3577 678.6811 Z M 1059.1582 687.4394 C 1046.4081 689.9121 1032.5987 688.25 1019.631 688.25 L 1019.631 709.4183 C 1033.9844 707.9647 1050.1467 711.7136 1064.5586 707.9062 L 1059.1582 687.4394 Z M 257.6309 688.25 L 257.6309 709.4183 L 299.9648 709.4183 L 299.9648 688.25 L 257.6309 688.25 Z M 342.2987 688.25 L 342.2987 709.4183 L 384.6309 709.4183 L 384.6309 688.25 L 342.2987 688.25 Z M 426.9648 688.25 L 426.9648 709.4183 L 469.2987 709.4183 L 469.2987 688.25 L 426.9648 688.25 Z M 511.631 688.25 L 511.631 709.4183 L 553.9648 709.4183 L 553.9648 688.25 L 511.631 688.25 Z M 596.2987 688.25 L 596.2987 709.4183 L 638.631 709.4183 L 638.631 688.25 L 596.2987 688.25 Z M 680.9648 688.25 L 680.9648 709.4183 L 723.2987 709.4183 L 723.2987 688.25 L 680.9648 688.25 Z M 765.631 688.25 L 765.631 709.4183 L 807.9648 709.4183 L 807.9648 688.25 L 765.631 688.25 Z M 850.2987 688.25 L 850.2987 709.4183 L 892.631 709.4183 L 892.631 688.25 L 850.2987 688.25 Z M 934.9648 688.25 L 934.9648 709.4183 L 977.2987 709.4183 L 977.2987 688.25 L 934.9648 688.25 Z M 81.6722 729.7849 L 64.4158 742.0412 C 73.0356 754.4639 83.5798 765.434 95.371 774.8691 L 108.5919 758.3376 C 98.2216 750.2451 89.2771 740.4912 81.6722 729.7849 Z M 1161.9199 733.8301 C 1156.0904 745.2773 1146.8752 754.4446 1137.2557 762.7385 L 1151.0802 778.7674 C 1162.8333 768.7956 1173.7077 757.3219 1180.7617 743.4747 L 1161.9199 733.8301 Z M 142.5935 778.057 L 141.8927 779.8202 L 134.2989 797.5256 C 148.7594 803.1102 164.037 807.4499 177.0389 810.0002 L 181.0489 789.2169 C 167.9314 786.864 155.1435 783.0442 142.7698 778.1266 L 142.6425 778.0724 L 142.6404 778.0761 L 142.5935 778.057 Z M 1104.3302 783.5429 C 1092.3761 788.7713 1079.6163 792.0842 1066.6406 793.4142 L 1068.7969 814.4708 C 1083.9279 812.9963 1098.7356 808.9903 1112.6857 802.9903 L 1104.3302 783.5429 Z M 221.6037 793.7093 L 220.5623 814.8516 C 234.8347 815.4686 249.1299 815.2511 263.4105 815.2511 L 263.4105 794.0828 C 249.4805 793.9064 235.5269 794.3966 221.6037 793.7093 Z M 305.7441 794.0823 L 305.7441 815.25 L 348.0761 815.25 L 348.0761 794.0823 L 305.7441 794.0823 Z M 390.4105 794.0823 L 390.4105 815.25 L 432.7441 815.25 L 432.7441 794.0823 L 390.4105 794.0823 Z M 475.0761 794.0823 L 475.0761 815.25 L 517.4105 815.25 L 517.4105 794.0823 L 475.0761 794.0823 Z M 559.7444 794.0823 L 559.7444 815.25 L 602.0761 815.25 L 602.0761 794.0823 L 559.7444 794.0823 Z M 644.4105 794.0823 L 644.4105 815.25 L 686.7444 815.25 L 686.7444 794.0823 L 644.4105 794.0823 Z M 729.0761 794.0823 L 729.0761 815.25 L 771.4105 815.25 L 771.4105 794.0823 L 729.0761 794.0823 Z M 813.7444 794.0823 L 813.7444 815.25 L 856.0761 815.25 L 856.0761 794.0823 L 813.7444 794.0823 Z M 898.4103 794.0823 L 898.4103 815.25 L 940.7441 815.25 L 940.7441 794.0823 L 898.4103 794.0823 Z M 983.0762 794.0823 L 983.0762 815.25 L 1025.4103 815.25 L 1025.4103 794.0823 L 983.0762 794.0823 Z "/>
      <path id="path2375" fill="#fffff0" stroke="none" stroke-width="21.166667938232422" stroke-linecap="butt" stroke-linejoin="round" opacity="1" d="M 1019.496 0.3317 L 1019.496 21.5 C 1033.0647 21.4108 1046.6582 21.9844 1060.0823 24.0548 L 1063.3124 3.1347 C 1048.8288 0.7921 1034.1407 0.3317 1019.496 0.3317 Z M 185.75 0.3323 L 185.75 21.5 L 215.1621 21.5 L 215.1621 0.3323 L 185.75 0.3323 Z M 257.496 0.3323 L 257.496 21.5 L 299.8299 21.5 L 299.8299 0.3323 L 257.496 0.3323 Z M 342.1621 0.3323 L 342.1621 21.5 L 384.496 21.5 L 384.496 0.3323 L 342.1621 0.3323 Z M 426.8299 0.3323 L 426.8299 21.5 L 469.1622 21.5 L 469.1622 0.3323 L 426.8299 0.3323 Z M 511.496 0.3323 L 511.496 21.5 L 553.8299 21.5 L 553.8299 0.3323 L 511.496 0.3323 Z M 596.1622 0.3323 L 596.1622 21.5 L 638.496 21.5 L 638.496 0.3323 L 596.1622 0.3323 Z M 680.8299 0.3323 L 680.8299 21.5 L 723.1622 21.5 L 723.1622 0.3323 L 680.8299 0.3323 Z M 765.496 0.3323 L 765.496 21.5 L 807.8299 21.5 L 807.8299 0.3323 L 765.496 0.3323 Z M 850.1622 0.3323 L 850.1622 21.5 L 892.496 21.5 L 892.496 0.3323 L 850.1622 0.3323 Z M 934.8299 0.3323 L 934.8299 21.5 L 977.1622 21.5 L 977.1622 0.3323 L 934.8299 0.3323 Z M 142.0432 2.927 C 127.2424 4.8641 112.7189 8.5624 98.7931 13.9181 L 106.3869 33.6761 C 118.7874 28.7602 131.8216 25.75 145.0057 23.8865 L 142.0432 2.927 Z M 1106.4826 15.4688 L 1098.1038 34.9064 C 1110.1166 39.8642 1121.0114 46.9537 1130.5586 55.7347 L 1144.8826 40.1505 C 1133.7714 29.5494 1120.5391 21.5283 1106.4826 15.4688 Z M 59.4884 36.6231 C 46.8675 47.3101 37.501 57.4899 28.787 69.6682 L 46.0018 81.9827 C 53.5758 71.2726 62.4229 61.3645 72.6954 53.1643 L 59.4884 36.6231 Z M 1172.6274 76.2087 L 1154.1581 86.5489 C 1160.279 97.9416 1165.0045 110.26 1167.4296 122.9921 L 1188.2206 119.0175 C 1180.8072 95.0306 1187.3594 102.4098 1172.6274 76.2087 Z M 1011.6837 106.037 C 1004.4812 106.041 997.2766 106.1661 990.0839 106.1661 L 990.0839 127.3339 C 1003.878 127.8432 1017.7614 126.5936 1031.5407 127.7307 L 1033.2695 106.635 C 1026.086 106.1497 1018.8859 106.0328 1011.6837 106.037 Z M 228.0839 106.1661 L 228.0839 127.3339 L 270.4161 127.3339 L 270.4161 106.1661 L 228.0839 106.1661 Z M 312.75 106.1661 L 312.75 127.3339 L 355.0839 127.3339 L 355.0839 106.1661 L 312.75 106.1661 Z M 397.4161 106.1661 L 397.4161 127.3339 L 439.75 127.3339 L 439.75 106.1661 L 397.4161 106.1661 Z M 482.0839 106.1661 L 482.0839 127.3339 L 524.4162 127.3339 L 524.4162 106.1661 L 482.0839 106.1661 Z M 566.75 106.1661 L 566.75 127.3339 L 609.0839 127.3339 L 609.0839 106.1661 L 566.75 106.1661 Z M 651.4162 106.1661 L 651.4162 127.3339 L 693.75 127.3339 L 693.75 106.1661 L 651.4162 106.1661 Z M 736.0839 106.1661 L 736.0839 127.3339 L 778.4162 127.3339 L 778.4162 106.1661 L 736.0839 106.1661 Z M 820.75 106.1661 L 820.75 127.3339 L 863.0839 127.3339 L 863.0839 106.1661 L 820.75 106.1661 Z M 905.4162 106.1661 L 905.4162 127.3339 L 947.75 127.3339 L 947.75 106.1661 L 905.4162 106.1661 Z M 181.0272 106.209 C 165.7665 106.7919 149.855 107.4359 135.504 113.2427 L 135.3985 113.2893 C 138.3732 119.6972 140.9722 126.2451 143.4725 132.8462 C 155.5867 128.4115 168.7619 127.6858 181.545 127.3696 L 181.0272 106.209 Z M 8.0802 109.9298 C 2.9287 124.2462 0.5792 139.3404 0.0781 154.5002 L 21.2344 155.2014 C 21.4189 142.1016 23.8758 129.1629 28.1054 116.7852 L 8.0802 109.9298 Z M 1080.9532 123.3791 C 1075.0064 126.9441 1069.7841 132.1363 1063.078 134.3382 L 1063.1094 134.4295 L 1063.0412 134.4631 C 1065.4269 145.5615 1064.1167 159.1894 1063.419 170.6253 L 1084.5478 171.9125 C 1083.5017 157.2111 1090.0607 136.7681 1080.9532 123.3791 Z M 127.5938 155.7713 L 106.4298 156.1367 C 106.562 173.2372 114.0762 189.9732 126.8651 201.3516 L 140.9238 185.5271 C 132.419 178.0436 127.7832 166.9978 127.5938 155.7713 Z M 1169.7659 162.8846 C 1169.2846 176.6387 1168.3737 190.396 1166.6824 204.0583 L 1187.6904 206.6504 C 1189.3445 192.296 1190.5455 177.8706 1190.9249 163.4214 L 1169.7659 162.8846 Z M 174.8653 191.5908 L 173.5294 212.7146 C 186.7006 213.7097 199.8753 215.8627 212.4647 219.9282 L 218.9806 199.79 C 204.7016 195.309 189.8103 192.5272 174.8653 191.5908 Z M 26.4063 193.9004 L 5.9765 199.4318 C 9.9436 213.9616 16.2947 227.6954 23.8358 240.6877 L 23.9708 240.9139 L 23.9806 240.9296 C 29.94 237.1473 36.0387 233.6027 42.1408 230.0589 C 35.3037 218.8046 30.2234 206.6298 26.4454 194.0409 L 26.4063 193.9004 Z M 1058.629 211.5116 C 1056.3266 224.9466 1053.4511 238.3141 1049.3733 251.3298 L 1069.5706 257.6602 C 1073.9351 243.7415 1077.04 229.4488 1079.4924 215.0784 L 1058.629 211.5116 Z M 259.5605 221.0429 L 246.506 237.7048 C 256.2056 246.349 265.5899 255.6269 272.9747 266.3166 L 290.3983 254.2971 C 281.8353 241.7548 271.5274 230.4092 259.5605 221.0429 Z M 1160.0602 244.9904 C 1157.3014 258.4886 1153.8494 271.8411 1149.9155 285.043 L 1170.148 291.2639 C 1174.2876 277.4235 1177.8719 263.4186 1180.7884 249.2695 L 1160.0602 244.9904 Z M 66.6875 260.7246 C 61.8689 265.8753 56.8921 270.8788 51.9748 275.9355 C 62.9315 286.4244 75.4682 295.2808 88.9808 302.1584 L 98.5801 283.2928 C 86.8659 277.4976 76.3728 269.6255 66.7811 260.8103 L 66.7303 260.7619 L 66.7282 260.764 L 66.6875 260.7246 Z M 1033.6782 288.0021 C 1026.5673 298.7923 1015.3207 308.5661 1006.9588 317.7286 L 1022.6075 331.9825 C 1032.5937 320.4403 1044.228 311.9297 1051.9612 298.668 L 1033.6782 288.0021 Z M 312.8476 292.7461 C 306.378 295.5843 299.7314 297.9372 293.0819 300.3047 C 297.7174 312.2221 299.0679 324.9766 298.2733 337.6678 L 319.3987 338.9923 C 320.5838 323.3139 318.4502 307.4688 312.8535 292.762 L 312.8476 292.7461 Z M 135.6093 295.258 L 132.1663 316.1424 C 146.0829 318.9062 160.4251 316.7374 174.3729 319.0293 L 177.7871 298.1388 C 163.8229 295.8383 149.5719 297.5467 135.6093 295.258 Z M 1135.7836 323.4102 C 1130.2242 335.4207 1123.4546 346.9296 1115.1368 357.2459 L 1131.6365 370.5061 C 1141.0181 358.826 1148.7477 345.8617 1155.0098 332.2656 L 1135.7836 323.4102 Z M 191.1599 334.4164 C 187.201 346.3531 179.0404 356.5324 170.705 365.7343 L 186.3924 379.9432 C 196.677 368.3701 206.8026 355.6394 211.4021 340.5994 L 191.1599 334.4164 Z M 980.5314 353.3732 C 972.7122 366.2693 966.9731 380.3184 962.9414 394.8282 L 983.3381 400.4847 C 986.7626 387.7651 991.9468 375.5488 998.6953 364.2384 L 980.5314 353.3732 Z M 289.0177 375.4334 C 283.9848 387.7548 277.6594 399.5838 270.164 410.5878 L 287.6601 422.502 C 295.9045 410.1211 303.2734 397.0335 308.7207 383.1643 L 289.0177 375.4334 Z M 1086.633 387.7971 C 1076.0955 399.5878 1065.8386 412.9791 1062.8943 428.92 L 1083.7073 432.7792 C 1086.1978 420.7208 1094.4713 410.8307 1102.4435 401.8711 L 1086.633 387.7971 Z M 140.4845 391.6251 C 128.3687 399.7862 116.6675 408.6391 105.9472 418.5822 L 120.3339 434.1074 L 120.5487 433.9084 L 120.5784 433.8809 C 130.4486 424.6377 141.3979 416.7201 152.4982 409.0511 L 140.4845 391.6251 Z M 956.535 439.1546 C 956.04 454.0226 957.7616 468.8308 960.4045 483.4355 L 981.2307 479.6467 C 978.7277 466.5072 977.3445 453.1365 977.6929 439.752 L 956.535 439.1546 Z M 244.674 441.9452 C 235.2165 451.7109 225.0062 460.7502 214.1797 468.9724 L 226.9925 485.8221 C 238.6733 477.0043 249.5744 467.2052 259.8029 456.7478 L 244.674 441.9452 Z M 76.0746 450.8923 C 66.9576 462.471 59.1172 474.9853 52.2206 487.994 L 70.9261 497.9024 C 77.152 485.9213 84.4995 474.5371 92.7876 463.8807 L 76.0746 450.8923 Z M 1087.0878 471.0038 L 1066.2323 474.6233 C 1068.7535 489.0444 1071.3078 503.5418 1076.0002 517.4453 L 1096.0506 510.6604 C 1091.7363 497.7868 1089.4021 484.3497 1087.0878 471.0038 Z M 179.5839 493.541 C 167.5742 502.803 155.928 513.0048 147.3772 525.6604 L 164.9141 537.5119 C 172.2787 526.7386 182.3337 518.1997 192.5646 510.2619 L 179.5839 493.541 Z M 990.1755 519.9885 L 969.8009 525.721 C 973.6295 539.7973 978.4534 553.5903 984.2461 566.9769 L 1003.6737 558.5764 C 998.1418 546.0963 993.8674 533.1164 990.1755 519.9885 Z M 35.5137 529.1193 C 31.319 543.2658 28.2816 557.7946 26.7968 572.4845 L 47.855 574.6229 C 49.2305 561.2262 52.0071 548.0108 55.8163 535.1039 L 35.5137 529.1193 Z M 1115.6448 543.2269 L 1099.5899 557.0215 C 1108.7667 567.6212 1119.2736 576.9689 1128.1427 587.8444 L 1144.586 574.516 C 1135.7153 563.3738 1124.9354 553.9907 1115.6448 543.2269 Z M 131.295 569.7405 C 129.5943 584.5654 130.1952 599.6006 131.916 614.3987 L 152.9417 611.967 C 151.4724 598.7566 150.8099 585.3861 152.3241 572.1522 L 131.295 569.7405 Z M 1022.8983 594.033 L 1005.3361 605.8458 C 1013.4567 618.0693 1022.5739 629.6475 1032.613 640.3554 L 1048.0546 625.8793 C 1038.7641 616.0082 1030.4591 605.2709 1022.8983 594.033 Z M 1168.9981 611.7693 L 1150.074 621.252 C 1156.2415 633.1635 1160.9206 645.7802 1164.3946 658.7225 L 1184.8379 653.2345 C 1181.1559 638.8515 1175.6415 625.0249 1168.9981 611.7693 Z M 47.0834 615.1642 L 25.9591 616.4884 C 26.9135 631.0085 29.0661 645.4278 31.7614 659.719 L 52.5601 655.791 C 50.0415 642.3615 47.9354 628.8117 47.0834 615.1642 Z M 160.4884 651.5603 L 140.2731 657.8322 C 145.0261 674.1774 154.1071 689.3446 169.5334 697.4298 C 172.9278 691.2507 175.8765 684.8218 179.4357 678.7343 C 168.9191 673.2029 163.8867 662.4825 160.4884 651.5603 Z M 1077.2776 658.627 L 1059.8146 670.5902 C 1063.9291 676.9933 1068.0339 684.5805 1059.0486 687.4785 C 1061.0968 694.2262 1062.7594 701.0884 1064.5586 707.9062 C 1071.0075 706.0626 1077.5186 703.0384 1082.1795 698.1134 C 1090.4174 687.665 1084.1391 668.9653 1077.4594 658.8948 L 1077.2776 658.627 Z M 216.2578 687.4097 L 214.3851 708.4944 C 228.7646 709.7038 243.218 709.4188 257.6309 709.4188 L 257.6309 688.25 C 243.8422 688.1982 230.0161 688.5628 216.2578 687.4097 Z M 299.9648 688.25 L 299.9648 709.4183 L 342.2987 709.4183 L 342.2987 688.25 L 299.9648 688.25 Z M 384.6309 688.25 L 384.6309 709.4183 L 426.9648 709.4183 L 426.9648 688.25 L 384.6309 688.25 Z M 469.2987 688.25 L 469.2987 709.4183 L 511.631 709.4183 L 511.631 688.25 L 469.2987 688.25 Z M 553.9648 688.25 L 553.9648 709.4183 L 596.2987 709.4183 L 596.2987 688.25 L 553.9648 688.25 Z M 638.631 688.25 L 638.631 709.4183 L 680.9648 709.4183 L 680.9648 688.25 L 638.631 688.25 Z M 723.2987 688.25 L 723.2987 709.4183 L 765.631 709.4183 L 765.631 688.25 L 723.2987 688.25 Z M 807.9648 688.25 L 807.9648 709.4183 L 850.2987 709.4183 L 850.2987 688.25 L 807.9648 688.25 Z M 892.631 688.25 L 892.631 709.4183 L 934.9648 709.4183 L 934.9648 688.25 L 892.631 688.25 Z M 977.2987 688.25 L 977.2987 709.4183 L 1019.631 709.4183 L 1019.631 688.25 L 977.2987 688.25 Z M 63.3947 694.7498 L 43.5939 702.2306 C 48.9326 716.2437 55.716 729.797 64.4158 742.0412 L 81.6716 729.7849 C 74.0842 718.9735 68.0496 707.0992 63.3947 694.7498 Z M 1191.1466 697.5901 L 1169.9826 697.9822 C 1170.2564 710.3967 1167.5894 722.7792 1161.9199 733.8301 L 1180.7617 743.4747 C 1188.1036 729.397 1191.4456 713.4278 1191.1466 697.5901 Z M 108.5919 758.3376 L 95.371 774.8691 C 107.1309 784.3488 120.4625 791.5881 134.2989 797.5256 L 142.6425 778.0724 C 130.524 772.985 118.8792 766.5633 108.5919 758.3376 Z M 1137.2557 762.7379 C 1127.3871 771.2403 1116.2955 778.3695 1104.3302 783.5429 L 1112.6857 802.9903 C 1126.6253 796.9515 1139.5875 788.6949 1151.0797 778.7674 L 1137.2557 762.7379 Z M 181.0489 789.2166 L 177.0389 810.0002 C 191.3941 812.7683 205.9737 814.1346 220.5623 814.8516 L 221.6037 793.7093 C 208.0139 793.0753 194.418 791.7923 181.0489 789.2166 Z M 1066.6406 793.4137 C 1052.9439 794.6554 1039.1419 794.0823 1025.4103 794.0823 L 1025.4103 815.25 C 1039.8589 814.9389 1054.3856 815.9475 1068.7969 814.4698 L 1066.6406 793.4137 Z M 263.4105 794.0823 L 263.4105 815.25 L 305.7441 815.25 L 305.7441 794.0823 L 263.4105 794.0823 Z M 348.0761 794.0823 L 348.0761 815.25 L 390.4105 815.25 L 390.4105 794.0823 L 348.0761 794.0823 Z M 432.7441 794.0823 L 432.7441 815.25 L 475.0761 815.25 L 475.0761 794.0823 L 432.7441 794.0823 Z M 517.4105 794.0823 L 517.4105 815.25 L 559.7444 815.25 L 559.7444 794.0823 L 517.4105 794.0823 Z M 602.0761 794.0823 L 602.0761 815.25 L 644.4105 815.25 L 644.4105 794.0823 L 602.0761 794.0823 Z M 686.7444 794.0823 L 686.7444 815.25 L 729.0761 815.25 L 729.0761 794.0823 L 686.7444 794.0823 Z M 771.4105 794.0823 L 771.4105 815.25 L 813.7444 815.25 L 813.7444 794.0823 L 771.4105 794.0823 Z M 856.0761 794.0823 L 856.0761 815.25 L 898.4103 815.25 L 898.4103 794.0823 L 856.0761 794.0823 Z M 940.7441 794.0823 L 940.7441 815.25 L 983.078 815.25 L 983.078 794.0823 L 940.7441 794.0823 Z "/>
      <path id="path863" fill="#282828" stroke="none" stroke-width="105.83333969116211" stroke-linecap="butt" stroke-linejoin="round" opacity="1" d="M 185.75 10.9161 C 155.764 10.9161 124.3021 13.2995 93.258 27.787 C 62.2136 42.2743 34.8504 71.0562 20.201 107.6798 C 1.9371 153.339 11.3925 201.277 35.1756 238.9338 C 58.959 276.5906 101.6712 307.25 154 307.25 C 179.8704 307.25 185.1748 310.8507 187.1541 312.2364 C 188.9163 313.4698 193.6221 319.592 202.4709 332.6484 C 202.0859 333.3538 202.0293 338.1208 197.1308 347.4281 C 188.9626 362.9475 170.7907 384.1535 145.8143 400.8046 C 72.1538 449.9115 25.4564 531.0301 37.9921 631.3146 C 43.9569 679.0333 56.9098 724.9446 92.5976 758.5332 C 128.2854 792.1215 178.6938 804.6662 238.6661 804.6662 L 1000.6662 804.6662 L 1053.5839 804.6662 C 1087.9797 804.6662 1117.5927 792.1218 1139.5566 774.5508 C 1161.5202 756.9798 1180.5839 735.8756 1180.5839 698.8339 C 1180.5839 677.6672 1174.4395 617.8537 1122.7518 566.166 C 1086.6547 530.0689 1084.1422 517.9793 1074.0291 457.3008 C 1070.3834 435.4258 1073.3493 426.2924 1079.1075 415.4961 C 1084.8653 404.6998 1096.293 392.2929 1112.168 376.4179 C 1140.5154 348.0702 1153.6094 312.7592 1164.2107 273.3828 C 1174.812 234.0065 1180.5839 190.5815 1180.5839 148.5 C 1180.5839 96.3392 1151.2382 51.7654 1116.5682 32.2638 C 1081.8983 12.7619 1047.4104 10.9161 1021.8339 10.9161 L 905.4162 10.9161 Z M 185.75 116.75 L 905.4162 116.75 L 1021.8339 116.75 C 1038.5908 116.75 1057.0179 120.1954 1064.6813 124.506 C 1072.3447 128.8169 1074.75 126.5774 1074.75 148.5 C 1074.75 180.5019 1069.937 216.4519 1062.0175 245.8672 C 1054.098 275.2825 1040.7347 298.1798 1037.3321 301.5821 C 1021.4571 317.4571 1001.1332 336.8003 985.7244 365.6914 C 970.3158 394.5826 962.699 433.0742 969.6366 474.6993 C 980.6901 541.0208 999.3464 592.4322 1047.916 641.0018 C 1075.348 668.4338 1075.7028 676.0514 1075.0488 689.8674 C 1074.6752 690.5228 1074.3026 691.2205 1073.443 691.9082 C 1068.9485 695.5039 1061.5214 698.8339 1053.5839 698.8339 L 1000.6662 698.8339 L 238.6661 698.8339 C 192.8051 698.8339 174.4224 690.2119 165.131 681.4669 C 155.8396 672.7222 147.6264 655.1335 143.0079 618.1855 C 134.3769 549.1366 151.1801 524.4229 204.5193 488.8632 C 243.0431 463.1806 272.4947 431.4703 290.7848 396.7189 C 309.0752 361.9677 319.6681 317.4799 293.2793 277.8969 C 283.4487 263.1508 272.3251 242.6705 247.8459 225.535 C 223.3669 208.3998 191.6296 201.4161 154 201.4161 C 142.8288 201.4161 132.6227 195.0339 124.6561 182.4199 C 116.6892 169.8058 115.5619 154.2438 118.4646 146.9863 C 124.9818 130.6933 129.3707 127.7252 138.0139 123.6916 C 146.657 119.6583 162.8193 116.75 185.75 116.75 Z M 1075.8018 688.0572 C 1075.8933 688.0378 1075.8166 688.576 1075.4745 689.3264 C 1075.5843 688.9168 1075.7219 688.1185 1075.7814 688.0685 C 1075.7891 688.0622 1075.7954 688.0585 1075.8015 688.0572 Z "/>
      <path id="rect2565" fill="#ffffff" stroke="#ffffff" stroke-width="0.85201544" stroke-linecap="round" stroke-linejoin="round" d="M 799.515 11.347 L 819.83 11.347 L 819.83 116.319 L 799.515 116.319 Z "/>
      <path id="rect2567" fill="#000000" stroke="none" stroke-width="0.99172741" stroke-linecap="round" stroke-linejoin="round" d="M 799.082 106.169 L 809.665 106.169 L 809.665 116.752 L 799.082 116.752 Z "/>
      <path id="rect2571" fill="#000000" stroke="none" stroke-width="0.99172741" stroke-linecap="round" stroke-linejoin="round" d="M 809.665 95.586 L 820.248 95.586 L 820.248 106.169 L 809.665 106.169 Z "/>
      <path id="rect2573" fill="#000000" stroke="none" stroke-width="0.99172741" stroke-linecap="round" stroke-linejoin="round" d="M 799.082 85.002 L 809.665 85.002 L 809.665 95.586 L 799.082 95.586 Z "/>
      <path id="rect2575" fill="#000000" stroke="none" stroke-width="0.99172741" stroke-linecap="round" stroke-linejoin="round" d="M 809.665 74.419 L 820.248 74.419 L 820.248 85.002 L 809.665 85.002 Z "/>
      <path id="rect2577" fill="#000000" stroke="none" stroke-width="0.99172741" stroke-linecap="round" stroke-linejoin="round" d="M 799.082 63.836 L 809.665 63.836 L 809.665 74.419 L 799.082 74.419 Z "/>
      <path id="rect2579" fill="#000000" stroke="none" stroke-width="0.99172741" stroke-linecap="round" stroke-linejoin="round" d="M 809.665 53.252 L 820.248 53.252 L 820.248 63.836 L 809.665 63.836 Z "/>
      <path id="rect2581" fill="#000000" stroke="none" stroke-width="0.99172741" stroke-linecap="round" stroke-linejoin="round" d="M 799.082 42.669 L 809.665 42.669 L 809.665 53.252 L 799.082 53.252 Z "/>
      <path id="rect2583" fill="#000000" stroke="none" stroke-width="0.99172741" stroke-linecap="round" stroke-linejoin="round" d="M 809.665 32.086 L 820.248 32.086 L 820.248 42.669 L 809.665 42.669 Z "/>
      <path id="rect2585" fill="#000000" stroke="none" stroke-width="0.99172741" stroke-linecap="round" stroke-linejoin="round" d="M 799.082 21.502 L 809.665 21.502 L 809.665 32.086 L 799.082 32.086 Z "/>
      <path id="rect2587" fill="#000000" stroke="none" stroke-width="0.99172741" stroke-linecap="round" stroke-linejoin="round" d="M 809.665 10.919 L 820.248 10.919 L 820.248 21.502 L 809.665 21.502 Z "/>
    </g>
  </g>
</svg>